<svg width="24" height="24" viewBox="0 0 24 24" fill="none" xmlns="http://www.w3.org/2000/svg">
<path d="M15.7041 11.957L18.2813 9.37789H8.25C7.15598 9.37789 6.10677 9.81249 5.33318 10.5861C4.5596 11.3597 4.125 12.4089 4.125 13.5029C4.125 14.5969 4.5596 15.6461 5.33318 16.4197C6.10677 17.1933 7.15598 17.6279 8.25 17.6279H16.5C16.7984 17.6279 17.0845 17.7464 17.2955 17.9574C17.5065 18.1684 17.625 18.4545 17.625 18.7529C17.625 19.0513 17.5065 19.3374 17.2955 19.5484C17.0845 19.7594 16.7984 19.8779 16.5 19.8779H8.25C6.55925 19.8779 4.93774 19.2062 3.74219 18.0107C2.54665 16.8152 1.875 15.1936 1.875 13.5029C1.875 11.8121 2.54665 10.1906 3.74219 8.99508C4.93774 7.79954 6.55925 7.12789 8.25 7.12789H18.2813L15.7041 4.54883C15.5994 4.44418 15.5164 4.31995 15.4598 4.18322C15.4031 4.04649 15.374 3.89994 15.374 3.75195C15.374 3.60396 15.4031 3.45741 15.4598 3.32069C15.5164 3.18396 15.5994 3.05972 15.7041 2.95508C15.8087 2.85043 15.9329 2.76742 16.0697 2.71078C16.2064 2.65415 16.3529 2.625 16.5009 2.625C16.6489 2.625 16.7955 2.65415 16.9322 2.71078C17.0689 2.76742 17.1932 2.85043 17.2978 2.95508L21.7978 7.45508C21.9027 7.55959 21.9859 7.68378 22.0427 7.82053C22.0995 7.95728 22.1287 8.10389 22.1287 8.25195C22.1287 8.40002 22.0995 8.54663 22.0427 8.68337C21.9859 8.82012 21.9027 8.94431 21.7978 9.04883L17.2978 13.5488C17.0865 13.7602 16.7998 13.8789 16.5009 13.8789C16.2021 13.8789 15.9154 13.7602 15.7041 13.5488C15.4927 13.3375 15.374 13.0508 15.374 12.752C15.374 12.4531 15.4927 12.1664 15.7041 11.9551V11.957Z" fill="#F9F7F6"/>
</svg>
