<svg width="24" height="24" viewBox="0 0 24 24" fill="none" xmlns="http://www.w3.org/2000/svg">
<path d="M21.121 15.5559C20.3072 14.1562 19.875 12.1472 19.875 9.75C19.875 7.66142 19.0453 5.65838 17.5685 4.18153C16.0916 2.70469 14.0886 1.875 12 1.875C9.91145 1.875 7.90841 2.70469 6.43156 4.18153C4.95471 5.65838 4.12503 7.66142 4.12503 9.75C4.12503 12.1481 3.69471 14.1562 2.88096 15.5559C2.71491 15.8414 2.6269 16.1656 2.62574 16.4958C2.62459 16.8261 2.71035 17.1509 2.8744 17.4375C3.03742 17.7243 3.27402 17.9624 3.5598 18.1272C3.84557 18.292 4.17015 18.3775 4.50003 18.375H19.5C19.8294 18.377 20.1534 18.2913 20.4387 18.1265C20.7239 17.9617 20.9601 17.7239 21.1228 17.4375C21.2876 17.1513 21.3742 16.8267 21.3738 16.4965C21.3735 16.1662 21.2863 15.8418 21.121 15.5559ZM5.1244 16.125C5.95409 14.4375 6.37503 12.2944 6.37503 9.75C6.37503 8.25816 6.96766 6.82742 8.02255 5.77252C9.07744 4.71763 10.5082 4.125 12 4.125C13.4919 4.125 14.9226 4.71763 15.9775 5.77252C17.0324 6.82742 17.625 8.25816 17.625 9.75C17.625 12.2934 18.045 14.4375 18.8747 16.125H5.1244ZM16.125 21C16.125 21.2984 16.0065 21.5845 15.7955 21.7955C15.5845 22.0065 15.2984 22.125 15 22.125H9.00003C8.70166 22.125 8.41551 22.0065 8.20453 21.7955C7.99355 21.5845 7.87503 21.2984 7.87503 21C7.87503 20.7016 7.99355 20.4155 8.20453 20.2045C8.41551 19.9935 8.70166 19.875 9.00003 19.875H15C15.2984 19.875 15.5845 19.9935 15.7955 20.2045C16.0065 20.4155 16.125 20.7016 16.125 21Z" fill="black"/>
</svg>
