<svg width="24" height="24" viewBox="0 0 24 24" fill="none" xmlns="http://www.w3.org/2000/svg">
<path d="M16.5 7.125C16.5 6.23499 16.2361 5.36496 15.7416 4.62494C15.2471 3.88492 14.5443 3.30814 13.7221 2.96754C12.8998 2.62695 11.995 2.53783 11.1221 2.71147C10.2492 2.8851 9.44736 3.31369 8.81802 3.94302C8.18869 4.57236 7.7601 5.37418 7.58647 6.2471C7.41284 7.12001 7.50195 8.02481 7.84254 8.84708C8.18314 9.66935 8.75991 10.3721 9.49994 10.8666C10.24 11.3611 11.11 11.625 12 11.625C13.1931 11.6238 14.337 11.1493 15.1806 10.3056C16.0243 9.46197 16.4988 8.3181 16.5 7.125ZM12 9.375C11.555 9.375 11.12 9.24304 10.75 8.99581C10.38 8.74858 10.0916 8.39717 9.92127 7.98604C9.75098 7.57491 9.70642 7.12251 9.79324 6.68605C9.88005 6.24959 10.0943 5.84868 10.409 5.53401C10.7237 5.21934 11.1246 5.00505 11.561 4.91824C11.9975 4.83142 12.4499 4.87598 12.861 5.04627C13.2722 5.21657 13.6236 5.50496 13.8708 5.87497C14.118 6.24498 14.25 6.67999 14.25 7.125C14.25 7.72174 14.0129 8.29404 13.591 8.71599C13.169 9.13795 12.5967 9.375 12 9.375ZM17.625 11.625C16.735 11.625 15.865 11.8889 15.1249 12.3834C14.3849 12.8779 13.8081 13.5807 13.4675 14.4029C13.1269 15.2252 13.0378 16.13 13.2115 17.0029C13.3851 17.8758 13.8137 18.6776 14.443 19.307C15.0724 19.9363 15.8742 20.3649 16.7471 20.5385C17.62 20.7122 18.5248 20.6231 19.3471 20.2825C20.1693 19.9419 20.8721 19.3651 21.3666 18.6251C21.8611 17.885 22.125 17.015 22.125 16.125C22.1238 14.9319 21.6493 13.788 20.8056 12.9444C19.962 12.1007 18.8181 11.6262 17.625 11.625ZM17.625 18.375C17.18 18.375 16.745 18.243 16.375 17.9958C16.005 17.7486 15.7166 17.3972 15.5463 16.986C15.376 16.5749 15.3314 16.1225 15.4182 15.686C15.5051 15.2496 15.7193 14.8487 16.034 14.534C16.3487 14.2193 16.7496 14.0051 17.186 13.9182C17.6225 13.8314 18.0749 13.876 18.486 14.0463C18.8972 14.2166 19.2486 14.505 19.4958 14.875C19.743 15.245 19.875 15.68 19.875 16.125C19.875 16.7217 19.6379 17.294 19.216 17.716C18.794 18.1379 18.2217 18.375 17.625 18.375ZM6.375 11.625C5.48499 11.625 4.61496 11.8889 3.87494 12.3834C3.13492 12.8779 2.55814 13.5807 2.21754 14.4029C1.87695 15.2252 1.78783 16.13 1.96147 17.0029C2.1351 17.8758 2.56369 18.6776 3.19302 19.307C3.82236 19.9363 4.62418 20.3649 5.4971 20.5385C6.37001 20.7122 7.27481 20.6231 8.09708 20.2825C8.91935 19.9419 9.62215 19.3651 10.1166 18.6251C10.6111 17.885 10.875 17.015 10.875 16.125C10.8738 14.9319 10.3993 13.788 9.55561 12.9444C8.71197 12.1007 7.5681 11.6262 6.375 11.625ZM6.375 18.375C5.92999 18.375 5.49498 18.243 5.12497 17.9958C4.75496 17.7486 4.46657 17.3972 4.29627 16.986C4.12598 16.5749 4.08142 16.1225 4.16824 15.686C4.25505 15.2496 4.46934 14.8487 4.78401 14.534C5.09868 14.2193 5.49959 14.0051 5.93605 13.9182C6.37251 13.8314 6.82491 13.876 7.23604 14.0463C7.64717 14.2166 7.99858 14.505 8.24581 14.875C8.49304 15.245 8.625 15.68 8.625 16.125C8.625 16.7217 8.38795 17.294 7.96599 17.716C7.54404 18.1379 6.97174 18.375 6.375 18.375Z" fill="#27C58B"/>
</svg>
