<svg width="24" height="24" viewBox="0 0 24 24" fill="none" xmlns="http://www.w3.org/2000/svg">
<path d="M18.75 14.25C18.213 14.2496 17.6838 14.3783 17.2069 14.625L15.2015 13.065C15.3106 12.7412 15.3691 12.4025 15.375 12.0609L16.3453 11.7384C16.8941 12.2957 17.6194 12.6451 18.3973 12.7268C19.1751 12.8085 19.9572 12.6176 20.6099 12.1866C21.2625 11.7556 21.7452 11.1112 21.9754 10.3638C22.2057 9.61627 22.1691 8.81203 21.8721 8.0885C21.575 7.36497 21.0359 6.76706 20.3469 6.39699C19.6578 6.02692 18.8617 5.90765 18.0944 6.05957C17.3272 6.21149 16.6365 6.62517 16.1405 7.2299C15.6445 7.83463 15.3739 8.59286 15.375 9.375C15.375 9.47906 15.3806 9.58219 15.39 9.68437L14.6606 9.92719C14.3453 9.52209 13.9418 9.19425 13.4808 8.9686C13.0197 8.74295 12.5133 8.62543 12 8.625C11.9062 8.625 11.8237 8.625 11.7365 8.63625L11.3194 7.69875C11.8888 7.15868 12.2522 6.43707 12.347 5.65803C12.4419 4.879 12.2623 4.09125 11.8392 3.4303C11.4161 2.76935 10.7758 2.27652 10.0286 2.03659C9.2814 1.79666 8.47392 1.82464 7.7451 2.11569C7.01628 2.40675 6.41167 2.9427 6.03528 3.63134C5.65889 4.31999 5.53426 5.11827 5.68282 5.88888C5.83137 6.65948 6.24384 7.35422 6.84925 7.85359C7.45467 8.35296 8.21518 8.62574 8.99998 8.625C9.09373 8.625 9.17623 8.625 9.26341 8.61375L9.6806 9.55125C9.18635 10.0178 8.84489 10.6231 8.70115 11.2874C8.55741 11.9517 8.61812 12.644 8.87529 13.2731L6.88029 15.0459C6.18325 14.6612 5.37262 14.5352 4.59169 14.6903C3.81076 14.8455 3.10982 15.2717 2.61276 15.8937C2.11571 16.5156 1.85454 17.2933 1.87543 18.0892C1.89632 18.8851 2.19792 19.648 2.72692 20.2431C3.25592 20.8381 3.97825 21.227 4.76624 21.3409C5.55423 21.4549 6.35713 21.2866 7.03303 20.8658C7.70893 20.445 8.2143 19.7988 8.45981 19.0414C8.70532 18.284 8.67516 17.4642 8.37466 16.7269L10.3697 14.9541C10.9014 15.2483 11.5029 15.3931 12.1103 15.3732C12.7177 15.3532 13.3084 15.1692 13.8197 14.8406L15.6562 16.2712C15.3647 16.9371 15.2959 17.6792 15.46 18.3873C15.6242 19.0954 16.0126 19.7315 16.5674 20.2011C17.1222 20.6707 17.8138 20.9486 18.5392 20.9935C19.2647 21.0385 19.9853 20.848 20.5938 20.4504C21.2023 20.0529 21.6662 19.4695 21.9164 18.7871C22.1667 18.1047 22.19 17.3597 21.9828 16.663C21.7756 15.9663 21.3491 15.3551 20.7666 14.9203C20.1841 14.4856 19.4768 14.2505 18.75 14.25ZM18.75 8.25C18.9725 8.25 19.19 8.31598 19.375 8.4396C19.56 8.56321 19.7042 8.73891 19.7893 8.94448C19.8745 9.15005 19.8968 9.37625 19.8534 9.59448C19.81 9.8127 19.7028 10.0132 19.5455 10.1705C19.3881 10.3278 19.1877 10.435 18.9695 10.4784C18.7512 10.5218 18.525 10.4995 18.3195 10.4144C18.1139 10.3292 17.9382 10.185 17.8146 10C17.691 9.81501 17.625 9.5975 17.625 9.375C17.625 9.07663 17.7435 8.79048 17.9545 8.5795C18.1655 8.36853 18.4516 8.25 18.75 8.25ZM7.87498 5.25C7.87498 5.02749 7.94096 4.80999 8.06457 4.62498C8.18819 4.43998 8.36389 4.29578 8.56946 4.21063C8.77502 4.12549 9.00122 4.10321 9.21945 4.14662C9.43768 4.19002 9.63814 4.29717 9.79547 4.4545C9.95281 4.61184 10.06 4.81229 10.1034 5.03052C10.1468 5.24875 10.1245 5.47495 10.0393 5.68052C9.95419 5.88608 9.81 6.06179 9.62499 6.1854C9.43999 6.30902 9.22248 6.375 8.99998 6.375C8.70161 6.375 8.41546 6.25647 8.20448 6.04549C7.9935 5.83452 7.87498 5.54837 7.87498 5.25ZM5.24998 19.125C5.02747 19.125 4.80996 19.059 4.62496 18.9354C4.43995 18.8118 4.29576 18.6361 4.21061 18.4305C4.12546 18.2249 4.10318 17.9988 4.14659 17.7805C4.19 17.5623 4.29715 17.3618 4.45448 17.2045C4.61181 17.0472 4.81227 16.94 5.0305 16.8966C5.24873 16.8532 5.47493 16.8755 5.68049 16.9606C5.88606 17.0458 6.06176 17.19 6.18538 17.375C6.309 17.56 6.37498 17.7775 6.37498 18C6.37498 18.2984 6.25645 18.5845 6.04547 18.7955C5.83449 19.0065 5.54834 19.125 5.24998 19.125ZM10.875 12C10.875 11.7775 10.941 11.56 11.0646 11.375C11.1882 11.19 11.3639 11.0458 11.5695 10.9606C11.775 10.8755 12.0012 10.8532 12.2195 10.8966C12.4377 10.94 12.6381 11.0472 12.7955 11.2045C12.9528 11.3618 13.06 11.5623 13.1034 11.7805C13.1468 11.9988 13.1245 12.225 13.0393 12.4305C12.9542 12.6361 12.81 12.8118 12.625 12.9354C12.44 13.059 12.2225 13.125 12 13.125C11.7016 13.125 11.4155 13.0065 11.2045 12.7955C10.9935 12.5845 10.875 12.2984 10.875 12ZM18.75 18.75C18.5275 18.75 18.31 18.684 18.125 18.5604C17.94 18.4368 17.7958 18.2611 17.7106 18.0555C17.6255 17.8499 17.6032 17.6238 17.6466 17.4055C17.69 17.1873 17.7971 16.9868 17.9545 16.8295C18.1118 16.6722 18.3123 16.565 18.5305 16.5216C18.7487 16.4782 18.9749 16.5005 19.1805 16.5856C19.3861 16.6708 19.5618 16.815 19.6854 17C19.809 17.185 19.875 17.4025 19.875 17.625C19.875 17.9234 19.7564 18.2095 19.5455 18.4205C19.3345 18.6315 19.0483 18.75 18.75 18.75Z" fill="black"/>
</svg>
