<svg width="24" height="24" viewBox="0 0 24 24" fill="none" xmlns="http://www.w3.org/2000/svg">
<g filter="url(#filter0_dd_13595_26379)">
<path d="M19.2188 3C19.8333 3 20.3044 3.33472 20.583 3.70605C20.8612 4.07705 21 4.53867 21 5V19C21 19.4613 20.8612 19.9229 20.583 20.2939C20.3044 20.6653 19.8333 21 19.2188 21H4.78125C4.16669 21 3.6956 20.6653 3.41699 20.2939C3.13883 19.9229 3.00005 19.4613 3 19V5C3.00005 4.53867 3.13883 4.07705 3.41699 3.70605C3.6956 3.33472 4.16669 3 4.78125 3H19.2188ZM5.25 15.75V18.75H8.25V15.75H5.25ZM10.5 15.75V18.75H13.5V15.75H10.5ZM15.75 15.75V18.75H18.75V15.75H15.75ZM5.25 13.5H8.25V10.5H5.25V13.5ZM10.5 13.5H13.5V10.5H10.5V13.5ZM15.75 13.5H18.75V10.5H15.75V13.5ZM5.25 8.25H8.25V5.25H5.25V8.25ZM10.5 8.25H13.5V5.25H10.5V8.25ZM15.75 8.25H18.75V5.25H15.75V8.25Z" fill="white"/>
</g>
<defs>
<filter id="filter0_dd_13595_26379" x="-0.2" y="-0.2" width="26.2" height="26.2" filterUnits="userSpaceOnUse" color-interpolation-filters="sRGB">
<feFlood flood-opacity="0" result="BackgroundImageFix"/>
<feColorMatrix in="SourceAlpha" type="matrix" values="0 0 0 0 0 0 0 0 0 0 0 0 0 0 0 0 0 0 127 0" result="hardAlpha"/>
<feOffset dx="1" dy="1"/>
<feGaussianBlur stdDeviation="0.5"/>
<feColorMatrix type="matrix" values="0 0 0 0 0 0 0 0 0 0 0 0 0 0 0 0 0 0 0.1 0"/>
<feBlend mode="normal" in2="BackgroundImageFix" result="effect1_dropShadow_13595_26379"/>
<feColorMatrix in="SourceAlpha" type="matrix" values="0 0 0 0 0 0 0 0 0 0 0 0 0 0 0 0 0 0 127 0" result="hardAlpha"/>
<feOffset dx="0.4" dy="0.4"/>
<feGaussianBlur stdDeviation="0.3"/>
<feComposite in2="hardAlpha" operator="out"/>
<feColorMatrix type="matrix" values="0 0 0 0 0 0 0 0 0 0 0 0 0 0 0 0 0 0 0.1 0"/>
<feBlend mode="normal" in2="effect1_dropShadow_13595_26379" result="effect2_dropShadow_13595_26379"/>
<feBlend mode="normal" in="SourceGraphic" in2="effect2_dropShadow_13595_26379" result="shape"/>
</filter>
</defs>
</svg>
