<svg width="13" height="13" viewBox="0 0 12.5 12.5" fill="none" xmlns="http://www.w3.org/2000/svg">
<path d="M6.25391 6.25838e-06C6.94413 0.0023795 7.50216 0.56374 7.5 1.25391L7.4873 5.00001H11.25C11.9404 5.00001 12.5 5.55965 12.5 6.25001C12.5 6.94036 11.9404 7.50001 11.25 7.50001H7.4873L7.5 11.2461C7.50216 11.9363 6.94413 12.4976 6.25391 12.5C5.56373 12.5022 5.00237 11.9441 5 11.2539L4.98633 7.50001H1.25C0.559644 7.50001 0 6.94036 0 6.25001C0 5.55965 0.559644 5.00001 1.25 5.00001H4.98633L5 1.2461C5.00237 0.555879 5.56373 -0.00215528 6.25391 6.25838e-06Z" fill="white"/>
</svg>
