<svg width="28" height="28" viewBox="0 0 28 28" fill="none" xmlns="http://www.w3.org/2000/svg">
<path d="M24.5 7V14C24.5 15.8565 23.7625 17.637 22.4497 18.9497C21.137 20.2625 19.3565 21 17.5 21H3.5V14C3.5 12.1435 4.2375 10.363 5.55025 9.05025C6.86301 7.7375 8.64348 7 10.5 7H24.5Z" fill="white" fill-opacity="0.25"/>
<path d="M2.1875 14C2.18981 11.7961 3.06634 9.68308 4.62473 8.12469C6.18313 6.56629 8.2961 5.68977 10.5 5.68745H21.3281L20.9431 5.30355C20.821 5.18146 20.7242 5.03652 20.6581 4.877C20.592 4.71749 20.558 4.54652 20.558 4.37386C20.558 4.2012 20.592 4.03023 20.6581 3.87072C20.7242 3.7112 20.821 3.56626 20.9431 3.44417C21.0652 3.32208 21.2102 3.22524 21.3697 3.15916C21.5292 3.09309 21.7001 3.05908 21.8728 3.05908C22.0455 3.05908 22.2164 3.09309 22.376 3.15916C22.5355 3.22524 22.6804 3.32208 22.8025 3.44417L25.4275 6.06917C25.5499 6.19111 25.6469 6.336 25.7132 6.49553C25.7794 6.65507 25.8135 6.82612 25.8135 6.99886C25.8135 7.1716 25.7794 7.34265 25.7132 7.50218C25.6469 7.66172 25.5499 7.80661 25.4275 7.92855L22.8025 10.5535C22.5559 10.8001 22.2215 10.9386 21.8728 10.9386C21.5241 10.9386 21.1897 10.8001 20.9431 10.5535C20.6966 10.307 20.558 9.97256 20.558 9.62386C20.558 9.27516 20.6966 8.94074 20.9431 8.69417L21.3281 8.31245H10.5C8.99211 8.31419 7.54648 8.91396 6.48025 9.9802C5.41401 11.0464 4.81423 12.4921 4.8125 14C4.8125 14.348 4.67422 14.6819 4.42808 14.928C4.18193 15.1742 3.84809 15.3125 3.5 15.3125C3.1519 15.3125 2.81806 15.1742 2.57192 14.928C2.32578 14.6819 2.1875 14.348 2.1875 14ZM24.5 12.6875C24.1519 12.6875 23.8181 12.8257 23.5719 13.0719C23.3258 13.318 23.1875 13.6519 23.1875 14C23.1858 15.5078 22.586 16.9535 21.5197 18.0197C20.4535 19.0859 19.0079 19.6857 17.5 19.6875H6.67187L7.05687 19.3035C7.17896 19.1815 7.27581 19.0365 7.34188 18.877C7.40795 18.7175 7.44196 18.5465 7.44196 18.3739C7.44196 18.2012 7.40795 18.0302 7.34188 17.8707C7.27581 17.7112 7.17896 17.5663 7.05687 17.4442C6.93478 17.3221 6.78984 17.2252 6.63033 17.1592C6.47081 17.0931 6.29984 17.0591 6.12719 17.0591C5.95453 17.0591 5.78356 17.0931 5.62404 17.1592C5.46453 17.2252 5.31959 17.3221 5.1975 17.4442L2.5725 20.0692C2.45014 20.1911 2.35305 20.336 2.28681 20.4955C2.22056 20.6551 2.18646 20.8261 2.18646 20.9989C2.18646 21.1716 2.22056 21.3426 2.28681 21.5022C2.35305 21.6617 2.45014 21.8066 2.5725 21.9285L5.1975 24.5535C5.31959 24.6756 5.46453 24.7725 5.62404 24.8386C5.78356 24.9046 5.95453 24.9386 6.12719 24.9386C6.29984 24.9386 6.47081 24.9046 6.63033 24.8386C6.78984 24.7725 6.93478 24.6756 7.05687 24.5535C7.17896 24.4315 7.27581 24.2865 7.34188 24.127C7.40795 23.9675 7.44196 23.7965 7.44196 23.6239C7.44196 23.4512 7.40795 23.2802 7.34188 23.1207C7.27581 22.9612 7.17896 22.8163 7.05687 22.6942L6.67187 22.3125H17.5C19.7039 22.3101 21.8169 21.4336 23.3753 19.8752C24.9337 18.3168 25.8102 16.2039 25.8125 14C25.8125 13.6519 25.6742 13.318 25.4281 13.0719C25.1819 12.8257 24.8481 12.6875 24.5 12.6875Z" fill="white"/>
</svg>
