<svg width="28" height="28" viewBox="0 0 28 28" fill="none" xmlns="http://www.w3.org/2000/svg">
<path d="M3.38296 21.735C5.18328 19.8177 9.90937 15.75 16.625 15.75V21L25.375 12.25L16.625 3.5V8.75C10.85 8.75 3.4464 14.268 2.625 21.3872C2.61362 21.4794 2.63189 21.5728 2.67715 21.6539C2.72241 21.735 2.79231 21.7996 2.87674 21.8384C2.96117 21.8771 3.05573 21.888 3.14674 21.8694C3.23775 21.8508 3.32049 21.8037 3.38296 21.735Z" fill="white" fill-opacity="0.25"/>
<path d="M26.3036 11.3224L17.5536 2.57244C17.3701 2.38874 17.1363 2.26359 16.8816 2.21283C16.627 2.16207 16.363 2.18797 16.1231 2.28726C15.8832 2.38655 15.6781 2.55476 15.5338 2.77062C15.3895 2.98649 15.3125 3.24029 15.3125 3.49994V7.51838C12.495 7.85963 9.44345 9.25634 6.91798 11.3979C3.7286 14.1038 1.74235 17.5984 1.32454 21.2417C1.28221 21.6073 1.35623 21.9769 1.53607 22.298C1.71591 22.6191 1.99241 22.8754 2.32626 23.0303C2.6601 23.1852 3.0343 23.231 3.39563 23.161C3.75696 23.091 4.08704 22.9089 4.33892 22.6406C5.48298 21.4221 9.47954 17.6378 15.3125 17.1259V20.9999C15.3127 21.2594 15.3898 21.5129 15.5341 21.7285C15.6783 21.9441 15.8832 22.1122 16.1229 22.2114C16.3626 22.3107 16.6263 22.3367 16.8807 22.2861C17.1352 22.2356 17.369 22.1108 17.5525 21.9274L26.3025 13.1774C26.5484 12.9315 26.6867 12.598 26.6869 12.2502C26.6871 11.9024 26.5492 11.5687 26.3036 11.3224ZM17.9375 17.8281V15.7499C17.9375 15.4018 17.7992 15.068 17.5531 14.8219C17.3069 14.5757 16.9731 14.4374 16.625 14.4374C11.2656 14.4374 7.15642 16.7956 4.61673 18.8245C5.39657 16.8382 6.76376 14.9723 8.61657 13.4006C11.0797 11.3104 14.0733 10.0624 16.625 10.0624C16.9731 10.0624 17.3069 9.92416 17.5531 9.67802C17.7992 9.43187 17.9375 9.09804 17.9375 8.74994V6.67181L23.5156 12.2499L17.9375 17.8281Z" fill="white"/>
</svg>
