<svg width="24" height="24" viewBox="0 0 24 24" fill="none" xmlns="http://www.w3.org/2000/svg">
<path d="M22.875 5.25V11.25C22.875 11.5484 22.7565 11.8345 22.5455 12.0455C22.3345 12.2565 22.0484 12.375 21.75 12.375C21.4517 12.375 21.1655 12.2565 20.9545 12.0455C20.7435 11.8345 20.625 11.5484 20.625 11.25V7.96875L13.546 15.0488C13.4414 15.1536 13.3173 15.2368 13.1805 15.2936C13.0438 15.3504 12.8971 15.3796 12.7491 15.3796C12.601 15.3796 12.4544 15.3504 12.3177 15.2936C12.1809 15.2368 12.0567 15.1536 11.9522 15.0488L9.00002 12.0938L3.04596 18.0459C2.83461 18.2573 2.54797 18.376 2.24908 18.376C1.9502 18.376 1.66355 18.2573 1.45221 18.0459C1.24086 17.8346 1.12213 17.5479 1.12213 17.2491C1.12213 16.9502 1.24086 16.6635 1.45221 16.4522L8.20221 9.70219C8.30672 9.59731 8.43092 9.51409 8.56766 9.45731C8.70441 9.40053 8.85102 9.3713 8.99908 9.3713C9.14715 9.3713 9.29376 9.40053 9.4305 9.45731C9.56725 9.51409 9.69144 9.59731 9.79596 9.70219L12.75 12.6562L19.0313 6.375H15.75C15.4517 6.375 15.1655 6.25647 14.9545 6.0455C14.7435 5.83452 14.625 5.54837 14.625 5.25C14.625 4.95163 14.7435 4.66548 14.9545 4.4545C15.1655 4.24353 15.4517 4.125 15.75 4.125H21.75C22.0484 4.125 22.3345 4.24353 22.5455 4.4545C22.7565 4.66548 22.875 4.95163 22.875 5.25Z" fill="black"/>
</svg>
